<svg xmlns="http://www.w3.org/2000/svg" viewBox="0 0 725.65 416.16">
  <defs>
    <style>.cls-2{fill:none;}.cls-4{fill:#ce1141;}</style>
  </defs>
  <g id="Layer_2" data-name="Layer 2">
    <g id="Layer_1-2" data-name="Layer 1">
      <path class="themed defaultFill-HeaderText" fill="#000" d="M37.61,237h15.6l-3.29,17.57-.66,4a23.56,23.56,0,0,1,16.17-5.92c10.9,0,24.25,7.8,20.58,27.53-3.48,18.8-18.33,28.2-31.58,28.2-7.33,0-12.21-3.57-13.72-7.33l-1,5.54H24.74Zm32.8,43.32c1.22-6.67-2.63-13.16-10.34-13.16-8.27,0-14.28,6.68-15.41,13.16-1.41,7.24,2.35,13.44,10.15,13.44,8,0,14.28-6.49,15.6-13.34Z" />
      <path class="themed defaultFill-HeaderText" fill="#000" d="M102.27,303.88,92.12,254.35h16.64l5,30.26,15.6-30.26h16.54l-39,69.55H90.34Z" />
      <path class="cls-2" d="M550.83,127.05a33.86,33.86,0,0,0,25.41-10.59c7-7.15,10.4-15.69,10.4-26.09s-3.4-18.91-10.39-26a35.8,35.8,0,0,0-50.82,0c-7,7.15-10.39,15.68-10.39,26.08s3.39,18.92,10.38,26A34,34,0,0,0,550.83,127.05Z" />
      <path class="cls-2" d="M126.23,162.52a10.71,10.71,0,0,0-1.89,5.2,10.27,10.27,0,0,0,0,2.31,7,7,0,0,0,.9,2.18c1.64,2.78,5.08,4.53,9.48,4.84a30.86,30.86,0,0,0,7-.34c1.23-.19,2.33-.43,3.64-.74a33.12,33.12,0,0,0,3.24-1,34.26,34.26,0,0,0,11.79-7.31l0,0a64.32,64.32,0,0,0,11.19-13c-1-.09-1.93-.18-2.72-.27-2.75-.32-5.46-.59-8.17-.77-1.54-.11-3.12-.17-4.93-.17-.93,0-1.9,0-3,0a62.38,62.38,0,0,0-15.37,2.21C133.75,156.73,128.86,158.79,126.23,162.52Z" />
      <path class="themed defaultFill-HeaderText" fill="#000" d="M321.14,145.82a73.29,73.29,0,0,0,38.58-11.1c12.14-7.4,20.92-17,26.1-28.46l2.53-5.6H365.51l-1.16,2c-4,6.73-10,12.35-18.05,16.7a52.37,52.37,0,0,1-25.16,6.6c-14.87,0-27.09-5-37.35-15.33S268.54,88,268.54,73s5-27.33,15.26-37.68S306.27,19.9,321.14,19.9a50.91,50.91,0,0,1,24.38,6.39c7.79,4.2,13.68,9.65,17.51,16.2l1.15,2H387l-2.54-5.6c-5.12-11.31-13.74-20.72-25.61-28A71.52,71.52,0,0,0,321.14,0c-20.58,0-38.25,7.12-52.54,21.16S247.05,52.64,247.05,73s7.25,37.73,21.55,51.75S300.57,145.82,321.14,145.82Z" />
      <path class="themed defaultFill-HeaderText" fill="#000" d="M413.67,86.94c0-10.9,2.37-19.3,7.05-25,4.56-5.51,11-8.19,19.69-8.19,8.47,0,14.85,2.65,19.5,8.11s7.15,13.55,7.15,23.73v57.91h20.6V86c0-15.9-4.19-28.58-12.47-37.68S455.12,34.4,440.41,34.4c-10.7,0-19.67,3.05-26.74,9.06V2.29H393.06V143.53h20.61Z" />
      <path class="themed defaultFill-HeaderText" fill="#000" d="M550.31,145.82c14,0,26-4.32,35.8-12.8v10.51h20.61V37H586.11V47.53c-9.81-8.54-21.83-12.86-35.8-12.86-15.51,0-28.84,5.42-39.62,16.11s-16.26,24-16.26,39.5,5.47,28.73,16.26,39.43S534.8,145.82,550.31,145.82ZM515,90.46c0-10.4,3.4-18.93,10.39-26.08a35.8,35.8,0,0,1,50.82,0c7,7.12,10.39,15.64,10.39,26s-3.4,18.94-10.4,26.09a35.83,35.83,0,0,1-50.82,0C518.43,109.38,515,100.86,515,90.46Z" />
      <path class="themed defaultFill-HeaderText" fill="#000" d="M702.34,37V2.46H681.73V37h-18v.4l-.5,0c-10.12.38-18.19,3.22-24,8.45V37H618.7V143.22q-20.82,6.12-46.55,11.29a580.2,580.2,0,0,1-85.66,10.14,817.18,817.18,0,0,1-86.94-.63c-28.13-1.56-57.19-4.45-86.4-8.6-11.36-1.56-22.34-3.36-34-5.27l-9-1.47c-15.53-2.47-29.84-4.53-43.77-6.28-8.64-1.06-17.41-2-25.68-2.72,4.47-10.09,7.53-18.11,8.43-20.5L242.53,37H220.17L196.63,97,173.08,37H150.71l34.86,85.9-.22.56c-.42,1.1-.83,2.19-1.23,3.28l-.7,1.88c-1.48,3.65-3,7.28-4,9.58-3.56,0-6.85,0-10,.11-3,.13-5.94.32-8.87.6a88.85,88.85,0,0,0-9.1,1.29c-1.84.32-3.61.68-5.34,1.06V4.42h-8.22L73.13,85.84,8,4.42H0V143.53H22.8V59.1c0-.72,0-1.48,0-2.26.83,1.13,1.67,2.22,2.48,3.22l44.26,56.69h6.4l44.87-56.63c.83-1,1.68-2.14,2.53-3.3,0,.79,0,1.55,0,2.28v84.43h14c-1.19.37-2.37.75-3.53,1.17-5.69,2.13-12.12,5.11-16.69,11.09a22.48,22.48,0,0,0-4.33,10.47c-.13.89-.21,1.79-.26,2.7l0,1.48a14.12,14.12,0,0,0,.17,1.88,19.22,19.22,0,0,0,2,5.86,21.78,21.78,0,0,0,8.15,8.5,28.75,28.75,0,0,0,10.3,3.64,42.13,42.13,0,0,0,7.08.57c.95,0,1.92,0,2.91-.08,1.56-.06,3.3-.21,4.79-.39a48.92,48.92,0,0,0,5-.88,57.15,57.15,0,0,0,18.25-8.12A62.24,62.24,0,0,0,185.26,169a60.54,60.54,0,0,0,7.36-11.22l2.89.29c9.18.92,18.66,1.87,27.76,3,13.66,1.64,27.73,3.57,43,5.91l10,1.57c11,1.74,22.32,3.54,33.57,5,30,3.88,59.81,6.47,88.62,7.71a808.52,808.52,0,0,0,89.29-1.07c32.61-2.36,61.37-6.59,87.92-12.92,35-8.31,63.49-18.16,84.6-29.29l2.18-1.15-.23-9.84-5.48,2.52q-8,3.66-17.4,7.09V89.26c0-10.06,2.73-19.31,6.91-23.54,5.86-5.78,11.58-8.81,17.5-9.27l2.7-.2h15.32v87.28h20.61V56.25h23.31V37ZM155.76,153.41c1.81,0,3.39.06,4.93.17,2.71.18,5.42.45,8.17.77.79.09,1.73.18,2.72.27a64.32,64.32,0,0,1-11.19,13l0,0A34.26,34.26,0,0,1,148.56,175a33.12,33.12,0,0,1-3.24,1c-1.31.31-2.41.55-3.64.74a30.86,30.86,0,0,1-7,.34c-4.4-.31-7.84-2.06-9.48-4.84a7,7,0,0,1-.9-2.18,10.27,10.27,0,0,1,0-2.31,10.71,10.71,0,0,1,1.89-5.2c2.63-3.73,7.52-5.79,11.19-6.86a62.38,62.38,0,0,1,15.37-2.21C153.86,153.42,154.83,153.41,155.76,153.41Z" />
      <path class="opaqueOutline" fill="#fff" opacity="0.6" d="M651.56,256.54h0c-13-13.58-34-20.17-64.32-20.17-20.06,0-37.77,3.34-52.78,9.94l9-42.22H468.19l-9.48,44.57C447.5,241.6,433,237.9,416.19,237.9a83.9,83.9,0,0,0-21.13,2.69H356.94l6.32-29.74h-172L157,378.5h136l-8,37.66h75.26l7.86-37A81.29,81.29,0,0,0,393,382.72a98.09,98.09,0,0,0,38.91-7.83l-.76,3.61h75.25l1.81-8.53c13.34,8.47,31.84,12.75,55.13,12.75,48.75,0,80.38-18,96.75-55.24a65.1,65.1,0,0,0,4.15-18.72l.75-13.3C665.67,279.68,661.17,266.59,651.56,256.54Z" />
      <polygon class="cls-4" points="522.59 220.97 481.85 220.97 476.63 245.56 517.36 245.56 522.59 220.97" />
      <path class="cls-4" d="M305.93,399.28h40.74l10-47.08h.38c5.29,7.69,17.86,13.64,35.92,13.64,30.89,0,54.75-15.93,66.16-38L452,361.62H492.7l8-37.48c.19,28.37,22.83,41.7,62.65,41.7,44.88,0,68.6-16.3,81.26-45.06H601.5c-5.76,12.15-17,18.16-31.71,18.16-19.6,0-28.5-10.57-24.49-29.4s17.77-29.39,36.8-29.39c15.52,0,22.8,5.26,23.77,14.54h42.22c1.39-30.51-23.37-41.44-60.85-41.44-38.78,0-68.12,14-80.48,42.21l8.07-38H474.09l-7.5,35.29c-1.76-24.49-20.38-38-50.4-38-16.53,0-32.2,6-43.1,16.53h-.38l2.94-13.84H336.07L320.22,332H229.73l4.34-23.38h80.79l6-28.43H240.11l4.36-22.9h91.66l6.29-29.59H205L177.71,361.62H313.93Zm59.76-89.54c3.43-16.14,15.63-26.52,34.65-26.52,18.64,0,26.86,9.22,23.19,26.52s-15.82,26.51-34.46,26.51C370.05,336.25,362.26,325.88,365.69,309.74Z" />
    </g>
  </g>
</svg>