<svg xmlns="http://www.w3.org/2000/svg" viewBox="0 0 1414.67 216.59"><defs><style>.cls-1{opacity:0.6;}.cls-2{fill:none;}.cls-3,.cls-6{fill:#fff;}.cls-4,.cls-6{opacity:0.6;}.cls-5{fill:#231f20;}.cls-7{fill:#ce1141;}</style></defs><g id="Layer_2" data-name="Layer 2"><g id="Layer_1-2" data-name="Layer 1"><g class="cls-1"><path class="cls-2" d="M167.08,143.91c1-.13,2-.23,3-.31,2.87-.27,5.92-.48,9.32-.64h.11q1.68-.06,3.42-.09l1.19-2.9.65-1.74s0,0,0,0L167.08,94.53Z"/><path class="cls-2" d="M247.27,94.28l-17.82,43.91c-.47,1.25-1.5,3.95-3,7.64,3.91.42,7.85.87,11.73,1.35,12.67,1.59,25.65,3.43,39.57,5.61-2.06-1.69-4.07-3.48-6-5.39A79.62,79.62,0,0,1,247.27,94.28Z"/><path class="cls-2" d="M268.05,88.15c0,13.51,3.74,25.52,11.14,35.82-7.08-10.35-10.65-22.36-10.65-35.82s3.58-25.5,10.67-35.88C271.8,62.59,268.05,74.62,268.05,88.15Z"/><path class="cls-2" d="M146.08,42.79l-.46-1.14h.46V39.36l-1.19,1.49-.58,31.36c0,.72,0,1.42,0,2.09v73.93h1.79Z"/><path class="cls-2" d="M22,40.83l-1-1.28V148.23h1.8V74.3c0-.64,0-1.32,0-2Z"/><path class="cls-2" d="M38.48,61.4l3.25,4.41c.77,1.06,1.5,2,2.15,2.81l.15.17L83.25,119l39.89-50.34c.66-.81,1.39-1.77,2.18-2.85l3.17-4.36L83.66,117.87Z"/><path class="cls-2" d="M364.47,63c-2.85-4.86-7.37-9-13.44-12.26a40.57,40.57,0,0,0-19.39-5.13c-12.1,0-21.6,3.9-29.89,12.26s-12.21,18-12.21,30.29,3.87,21.86,12.19,30.22,17.81,12.24,29.91,12.24a42,42,0,0,0,20.16-5.34c6.32-3.42,11-7.72,14-12.78l4.2-7.14h23.06V70.15h-24.4Z"/><path class="cls-2" d="M414.06,94.31a49.07,49.07,0,0,1,4.88-17.44L414.06,81Z"/><path class="cls-2" d="M606.72,95.69V85.46l-6.18-5.39A45.07,45.07,0,0,1,606.72,95.69Z"/><path class="cls-2" d="M639.7,97.21A47.84,47.84,0,0,1,645,79.38l-5.26,4.71Z"/><path class="cls-2" d="M675,82.12c-3.32.26-6.87,2.28-10.86,6.2-1.22,1.29-3.85,7-3.85,16.14v31.72c.86-.37,1.7-.75,2.52-1.13l18.91-8.67V81.94h-4.42Z"/><path class="cls-2" d="M606.72,125.56v-10.1a45.16,45.16,0,0,1-5.94,15.25Z"/><path class="cls-2" d="M450.91,79.48c-7.07,0-9.91,2.34-11.6,4.38-3,3.68-4.64,10-4.64,18.28v55.53h32.39V100.82c0-7.62-1.56-13.31-4.64-16.93C460.67,81.84,457.77,79.48,450.91,79.48Z"/><path class="cls-2" d="M561.33,79.48a23.55,23.55,0,0,0-17.89,7.43C538.39,92.08,536,98,536,105.66s2.34,13.55,7.38,18.68a23.62,23.62,0,0,0,17.91,7.41c7.36,0,12.88-2.29,17.91-7.43s7.4-11.13,7.4-18.75S584.29,92,579.25,86.89A23.59,23.59,0,0,0,561.33,79.48Z"/><path class="cls-3" d="M723.34,41.65V7.16H681.73V41.65H586.11v2.42a66.82,66.82,0,0,0-25.3-4.71c-18.38,0-34.19,6.45-47,19.16a67,67,0,0,0-10.52,13.4,54.15,54.15,0,0,0-9.82-15.5C483,44.93,468.7,39.1,450.91,39.1a57.22,57.22,0,0,0-16.24,2.23V7H393.06V32.1a80.5,80.5,0,0,0-18.2-15A81.92,81.92,0,0,0,331.64,4.7c-23.43,0-43.58,8.13-59.9,24.17A86.78,86.78,0,0,0,261,41.65H223.51L207.12,83.42,190.74,41.65H167.08V9.12H143.29L83.61,84.19,23.55,9.12H0V169.23H43.8V102.62l31.09,39.83h16.6l31.8-40.13v57.79a35.94,35.94,0,0,0-4.07,4.48,33.05,33.05,0,0,0-6.4,15.38c-.17,1.17-.28,2.36-.35,3.65l-.06,2v.28a25.83,25.83,0,0,0,.31,3.3,29.68,29.68,0,0,0,3.07,9.07,32.28,32.28,0,0,0,12,12.6,39,39,0,0,0,14,5,52.57,52.57,0,0,0,8.84.72c1.12,0,2.26,0,3.4-.09,1.68-.07,3.64-.23,5.57-.46a57.28,57.28,0,0,0,6.15-1.08,67.61,67.61,0,0,0,21.62-9.56l.1-.07a72.5,72.5,0,0,0,16.4-14.5,70.4,70.4,0,0,0,5-6.78c7.89.8,16,1.63,23.7,2.58,13.57,1.62,27.51,3.54,42.59,5.85l10.1,1.59c11,1.74,22.4,3.54,33.74,5,30.3,3.92,60.42,6.54,89.56,7.79A820,820,0,0,0,499,205.75c33.18-2.41,62.49-6.72,89.58-13.18,35.88-8.51,65.18-18.68,87.08-30.22l6.1-3.21v10.08h41.61V81.94h23.31V41.65ZM22.8,148.23H21V39.55l1,1.28.75,31.46c0,.69,0,1.37,0,2ZM125.32,65.84c-.79,1.08-1.52,2-2.18,2.85L83.25,119,44,68.79l-.15-.17c-.65-.81-1.38-1.75-2.15-2.81L38.48,61.4l45.18,56.47,44.83-56.39Zm19,8.46c0-.67,0-1.37,0-2.09l.58-31.36,1.19-1.49v2.29h-.46l.46,1.14V148.23h-1.79Zm40.49,63.93-.65,1.74-1.19,2.9q-1.74,0-3.42.09h-.11c-3.4.16-6.45.37-9.32.64-1,.08-2,.18-3,.31V94.53l17.71,43.65S184.78,138.21,184.78,138.23Zm53.42,9c-3.88-.48-7.82-.93-11.73-1.35,1.48-3.69,2.51-6.39,3-7.64l17.82-43.91a79.62,79.62,0,0,0,24.48,53.12c1.95,1.91,4,3.7,6,5.39C263.85,150.61,250.87,148.77,238.2,147.18Zm41-23.21c-7.4-10.3-11.14-22.31-11.14-35.82s3.75-25.56,11.16-35.88c-7.09,10.38-10.67,22.4-10.67,35.88S272.11,113.62,279.19,124Zm113.87-18.62H370l-4.2,7.14c-3,5.06-7.68,9.36-14,12.78a42,42,0,0,1-20.16,5.34c-12.1,0-21.61-3.89-29.91-12.24s-12.19-18-12.19-30.22,3.88-21.89,12.21-30.29S319.54,45.6,331.64,45.6A40.57,40.57,0,0,1,351,50.73C357.1,54,361.62,58.13,364.47,63l4.19,7.16h24.4Zm21-11V81l4.88-4.14A49.07,49.07,0,0,0,414.06,94.31Zm53,63.36H434.67V102.14c0-8.28,1.6-14.6,4.64-18.28,1.69-2,4.53-4.38,11.6-4.38,6.86,0,9.76,2.36,11.51,4.41,3.08,3.62,4.64,9.31,4.64,16.93Zm112.18-33.35c-5,5.14-10.55,7.43-17.91,7.43a23.62,23.62,0,0,1-17.91-7.41c-5-5.13-7.38-11.07-7.38-18.68s2.35-13.58,7.4-18.75a25.31,25.31,0,0,1,35.81,0c5,5.13,7.39,11.07,7.39,18.68S584.29,119.15,579.24,124.32Zm27.48,1.24-5.94,5.15a45.16,45.16,0,0,0,5.94-15.25Zm0-29.87a45.07,45.07,0,0,0-6.18-15.62l6.18,5.39Zm33,1.52V84.09L645,79.38A47.84,47.84,0,0,0,639.7,97.21Zm42,29.17-18.91,8.67c-.82.38-1.66.76-2.52,1.13V104.46c0-9.1,2.63-14.85,3.85-16.14,4-3.92,7.54-5.94,10.86-6.2l2.3-.18h4.42Z"/></g><g class="cls-4"><path class="cls-3" d="M865.58,59l-4,7.75L860.31,59H821.9l.26,1.31a33.56,33.56,0,0,0-14.09-3.09c-.85,0-1.69,0-2.5.08l2.93-15.68h-37l-16.76,90.54h32a29.82,29.82,0,0,0,10.32,1.79A42.44,42.44,0,0,0,833,113.26l.79,3.88-19.31,32.4h41.17L906.45,59Z"/></g><path class="cls-5" d="M780.26,51.88h15.6l-3.29,17.57-.66,4a23.54,23.54,0,0,1,16.16-5.92c10.91,0,24.25,7.8,20.58,27.54-3.47,18.79-18.32,28.19-31.57,28.19-7.33,0-12.22-3.57-13.72-7.33l-1,5.54H767.38ZM813.05,95.2c1.23-6.67-2.63-13.15-10.33-13.15-8.27,0-14.29,6.67-15.42,13.15-1.41,7.24,2.35,13.44,10.15,13.44,8,0,14.29-6.48,15.6-13.34Z"/><path class="cls-5" d="M844.92,118.79,834.77,69.27H851.4l5,30.26L872,69.27h16.54l-39,69.54H833Z"/><path class="cls-5" d="M331.64,159.79a73.29,73.29,0,0,0,38.58-11.1c12.14-7.4,20.92-17,26.1-28.46l2.53-5.6H376l-1.16,2c-4,6.73-10,12.35-18.05,16.7a52.37,52.37,0,0,1-25.16,6.6c-14.87,0-27.09-5-37.35-15.33S279,101.92,279,86.92s5-27.33,15.26-37.68,22.47-15.37,37.34-15.37A50.91,50.91,0,0,1,356,40.26c7.79,4.2,13.68,9.65,17.51,16.2l1.15,2h22.86L395,52.82c-5.12-11.31-13.74-20.72-25.61-28A71.52,71.52,0,0,0,331.64,14c-20.58,0-38.25,7.12-52.54,21.15s-21.55,31.48-21.55,51.8,7.25,37.73,21.55,51.75S311.07,159.79,331.64,159.79Z"/><path class="cls-5" d="M424.17,100.91c0-10.9,2.37-19.3,7.05-25,4.56-5.51,11-8.19,19.69-8.19,8.47,0,14.85,2.65,19.5,8.1s7.15,13.56,7.15,23.74v57.9h20.6V99.94c0-15.9-4.19-28.58-12.47-37.68s-20.07-13.89-34.78-13.89c-10.7,0-19.67,3.05-26.74,9.06V16.25H403.56V157.49h20.61Z"/><path class="cls-5" d="M560.81,159.79c14,0,26-4.32,35.8-12.8v10.5h20.61V50.92H596.61V61.5c-9.81-8.54-21.83-12.87-35.8-12.87-15.51,0-28.84,5.42-39.62,16.12s-16.26,24-16.26,39.5,5.47,28.73,16.26,39.42S545.3,159.79,560.81,159.79Zm-35.27-55.36c0-10.4,3.4-18.93,10.39-26.09a35.83,35.83,0,0,1,50.82,0c7,7.13,10.39,15.65,10.39,26s-3.4,18.93-10.4,26.09a35.82,35.82,0,0,1-50.81,0C528.93,123.34,525.54,114.83,525.54,104.43Z"/><path class="cls-5" d="M712.84,50.92V16.43H692.23V50.92h-18v.4l-.5,0c-10.12.37-18.19,3.22-24,8.45V50.92H629.2V157.19q-20.82,6.12-46.55,11.29A580,580,0,0,1,497,178.62a817.18,817.18,0,0,1-86.94-.63c-28.13-1.56-57.19-4.45-86.4-8.6-11.36-1.56-22.34-3.36-34-5.27l-9-1.47c-15.53-2.47-29.84-4.53-43.77-6.28-8.64-1.06-17.41-2-25.68-2.73,4.47-10.08,7.53-18.1,8.43-20.5L253,50.92H230.67l-23.54,60-23.55-60H161.21l34.86,85.9-.22.56c-.42,1.09-.83,2.19-1.23,3.28l-.7,1.88c-1.48,3.64-3,7.28-4,9.58-3.56,0-6.85,0-10,.1-3,.14-5.94.33-8.87.61a88.85,88.85,0,0,0-9.1,1.29c-1.84.32-3.61.68-5.34,1V18.39h-8.22L83.63,99.8,18.5,18.39h-8V157.5H33.3V73.07c0-.72,0-1.48,0-2.26C34.1,71.94,34.94,73,35.75,74L80,130.72h6.4l44.87-56.63c.83-1,1.69-2.14,2.53-3.3,0,.78,0,1.55,0,2.28V157.5h14c-1.19.37-2.37.75-3.53,1.16-5.69,2.14-12.12,5.12-16.69,11.09a22.56,22.56,0,0,0-4.33,10.48c-.13.89-.21,1.79-.26,2.7l0,1.48a14,14,0,0,0,.17,1.87,19.18,19.18,0,0,0,2,5.87,21.78,21.78,0,0,0,8.15,8.5,28.75,28.75,0,0,0,10.3,3.64,42.17,42.17,0,0,0,7.09.57c.94,0,1.91,0,2.9-.08,1.56-.06,3.3-.22,4.79-.39a48.92,48.92,0,0,0,5-.88,57.15,57.15,0,0,0,18.25-8.12,62.24,62.24,0,0,0,14.16-12.47,60.54,60.54,0,0,0,7.36-11.22L206,172c9.18.92,18.66,1.87,27.76,3,13.66,1.64,27.73,3.57,43,5.91l10,1.57c11,1.74,22.32,3.53,33.57,5,30,3.88,59.81,6.47,88.62,7.71a811,811,0,0,0,89.29-1.07c32.61-2.37,61.37-6.59,87.92-12.92,35-8.31,63.49-18.17,84.6-29.29l2.18-1.15-.23-9.84-5.48,2.52q-8,3.66-17.4,7.09V103.23c0-10.06,2.73-19.31,6.91-23.55,5.86-5.77,11.58-8.8,17.5-9.26l2.7-.21h15.32v87.28h20.61V70.21h23.31V50.92ZM166.26,167.38c1.81,0,3.39.05,4.93.17,2.71.18,5.42.45,8.17.77.79.09,1.73.18,2.72.27a64.59,64.59,0,0,1-11.19,13l0,0A34.56,34.56,0,0,1,159.06,189a33.12,33.12,0,0,1-3.24,1c-1.31.31-2.41.55-3.64.74a31.45,31.45,0,0,1-7,.34c-4.4-.31-7.84-2.06-9.48-4.84a7,7,0,0,1-.9-2.18,10.27,10.27,0,0,1,.05-2.31,10.71,10.71,0,0,1,1.89-5.2c2.63-3.74,7.52-5.79,11.19-6.86a62.38,62.38,0,0,1,15.37-2.21C164.36,167.39,165.34,167.38,166.26,167.38Z"/><path class="cls-6" d="M1401.21,52.45h0c-13-13.57-34-20.17-64.33-20.17-20.06,0-37.76,3.34-52.78,9.95l9-42.23h-75.25l-9.48,44.57c-11.2-7-25.75-10.75-42.52-10.75a83.42,83.42,0,0,0-21.12,2.69h-38.13l6.33-29.75h-172L906.68,174.41h136.05l-8,37.66H1110l7.87-37a80.91,80.91,0,0,0,24.76,3.58,98.32,98.32,0,0,0,38.92-7.83l-.77,3.6H1256l1.81-8.53c13.34,8.47,31.84,12.76,55.13,12.76,48.75,0,80.39-18,96.76-55.24a65.51,65.51,0,0,0,4.14-18.73l.75-13.3C1415.32,75.6,1410.81,62.5,1401.21,52.45Z"/><polygon class="cls-7" points="1272.23 16.88 1231.5 16.88 1226.27 41.48 1267 41.48 1272.23 16.88"/><path class="cls-7" d="M1055.57,195.19h40.74l10-47.07h.39c5.28,7.68,17.85,13.64,35.91,13.64,30.89,0,54.75-15.93,66.16-38l-7.16,33.73h40.73l8-37.48c.2,28.37,22.84,41.71,62.65,41.71,44.89,0,68.61-16.3,81.27-45.07h-43.08c-5.76,12.16-17,18.17-31.7,18.17-19.6,0-28.5-10.57-24.5-29.4s17.78-29.4,36.8-29.4c15.52,0,22.8,5.27,23.78,14.55h42.22c1.38-30.51-23.38-41.45-60.86-41.45-38.78,0-68.12,14-80.48,42.21l8.07-38h-40.73l-7.5,35.29c-1.76-24.49-20.39-38-50.41-38-16.52,0-32.2,5.95-43.09,16.52h-.39l2.94-13.83h-39.58l-15.84,74.55h-90.5l4.34-23.37h80.79l6-28.44H989.76l4.36-22.9h91.65l6.29-29.59H954.68L927.35,157.53h136.23Zm59.77-89.54c3.43-16.14,15.62-26.51,34.65-26.51,18.64,0,26.86,9.22,23.18,26.51s-15.82,26.52-34.45,26.52C1119.69,132.17,1111.91,121.79,1115.34,105.65Z"/></g></g></svg>